# xmcd CD database file
#
# Track frame offsets:
#	150
#	20110
#	38570
#	67512
#	100135
#	119120
#	142577
#	170265
#
# Disc length: 2491 seconds
#
# Revision: 0
# Processed by: cddbd v1.5.1PL0 Copyright (c) Steve Scherf et al.
# Submitted via: CDex 1.51
#
DISCID=5d09b908
DTITLE=alvin 'red' tyler with johnny adams - heritage
DYEAR=1985
DGENRE=Jazz
TTITLE0=confusement
TTITLE1=under the rainbow
TTITLE2=i'll only miss her when i think of her
TTITLE3=new day
TTITLE4=new orleans cakewalk
TTITLE5=heritage
TTITLE6=lush life
TTITLE7=no relation
EXTD=YEAR: 1985
EXTT0=
EXTT1=
EXTT2=
EXTT3=
EXTT4=
EXTT5=
EXTT6=
EXTT7=
PLAYORDER=
